# xmcd
#
# Track frame offsets: 
#        150
#        41093
#        62628
#        95258
#        126714
#        170764
#        209713
#
# Disc length: 3262 seconds
#
# Revision: 0
# Processed by: cddbd v1.5.2PL0 Copyright (c) Steve Scherf et al.
# Submitted via: ExactAudioCopy v1.3
#
DISCID=6d0cbc07
DTITLE=Mark Knopfler - Live In Munich
DYEAR=2019
DGENRE=Blues
TTITLE0=Why Aye Man
TTITLE1=Corned Beef City
TTITLE2=Sailing To Philadelphia
TTITLE3=Once Upon A Time In The West
TTITLE4=Romeo And Juliet
TTITLE5=My Bacon Roll
TTITLE6=Matchstick Man
EXTD=
EXTT0=
EXTT1=
EXTT2=
EXTT3=
EXTT4=
EXTT5=
EXTT6=
PLAYORDER=
